<?xml version="1.0" encoding="utf-8"?>
<!-- Generator: Adobe Illustrator 24.1.2, SVG Export Plug-In . SVG Version: 6.00 Build 0)  -->
<svg version="1.1" xmlns="http://www.w3.org/2000/svg" xmlns:xlink="http://www.w3.org/1999/xlink" x="0px" y="0px"
	 viewBox="0 0 165.1 85.1" style="enable-background:new 0 0 165.1 85.1;" xml:space="preserve">
<style type="text/css">
	.st0{display:none;}
	.st1{fill:#FFFFFF;}
	.st2{fill:#FFFFFF;stroke:#000000;stroke-width:1.5;stroke-miterlimit:10;}
	.st3{fill:#00A3FF;}
	.st4{fill:#FFFFFF;stroke:#333333;stroke-width:1.5;stroke-miterlimit:10;}
	.st5{fill:#333333;}
	.st6{fill:#00A3FF;stroke:#333333;stroke-width:1.5;stroke-miterlimit:10;}
	.st7{fill:#FFFFFF;stroke:#000000;stroke-miterlimit:10;}
	.st8{fill:none;stroke:#333333;stroke-width:1.5;stroke-miterlimit:10;}
	.st9{fill:#87CEEB;stroke:#333333;stroke-width:1.5;stroke-miterlimit:10;}
	.st10{fill:#414647;}
	.st11{fill:#586485;}
	.st12{fill:#B0B0B0;stroke:#586485;stroke-width:1.5;stroke-miterlimit:10;}
	.st13{fill:#74839F;stroke:#333333;stroke-width:1.5;stroke-miterlimit:10;}
	.st14{fill:#4A576E;stroke:#333333;stroke-width:1.5;stroke-miterlimit:10;}
	.st15{fill:#8BA1AE;stroke:#333333;stroke-width:1.5;stroke-miterlimit:10;}
	.st16{fill:#8BA1AE;}
	.st17{fill:#475368;}
	.st18{fill:none;stroke:#475368;stroke-width:1.5;stroke-miterlimit:10;}
	.st19{fill:#586586;}
	.st20{fill:#FFFFFF;stroke:#586586;stroke-width:1.5;stroke-miterlimit:10;}
</style>
<g id="Layer_1" class="st0">
</g>
<g id="Logo_White">
	<g id="Layer_3">
	</g>
</g>
<g id="Logo_White_2">
	<g id="Layer_3_copy_3">
	</g>
</g>
<g id="Logo_Black">
	<g id="Layer_3_copy">
	</g>
</g>
<g id="Logo_Black_2">
	<g id="Layer_3_copy_4">
	</g>
</g>
<g id="Logo_Blue">
	<g id="Layer_3_copy_2">
	</g>
</g>
<g id="Logo_Black_2_copy">
	<g id="Layer_3_copy_5">
	</g>
	<g>
		<path class="st5" d="M4.4,79.9V50.1c1.8,0,4.2-0.3,4.2,0.6c0.5,0.6,0.8,1.5,1.2,2.3c0.4,0.8,1.2-2.9,5.9-2.9c3,0,6,1.6,7.2,5.3
			c1,3.3,1.3,10.9-2.2,13.8c-1.8,1.4-1.1,1.3-2.9,1.8c-1,0.3-4.4,0.6-5.9-0.5c-1.7-1.2-1.7-1.7-2-1.7l0,11.2 M14,66.9
			c4.4,0,4.1-4,4.1-6.5c0-1.9,0-6.2-4-6.2c-4.7,0-4.2,6.5-4.2,6.5S9.6,66.9,14,66.9z"/>
		<path class="st5" d="M41.6,60.6c0,4.5-2,6.4-4.4,6.4c-2.4,0-4.4-1.9-4.4-6.4c0-4.6,2-6.4,4.4-6.4C39.6,54.2,41.6,55.8,41.6,60.6z
			 M37.2,50c-5.5,0-10,3.6-10,10.5c0,6.9,4.5,10.5,10,10.5s10-3.3,10-10.5C47.2,53.4,42.7,50,37.2,50z"/>
		<path class="st4" d="M50.4,50c0,0-0.8,1.3,1.2,4.7c1.5,2.4,7.4,14,13,18.7c5.6,4.7,16.5,1.9,19-0.3s6.9-6.7,6.9-11.4
			c0-3.6,0-22.7,0-24.9c0-2.8-5.2-2.7-5.2-0.1c0,2.4,0.1,17.1,0.1,17.1c0,0.5-0.7,0.5-0.7,0.1c0-0.8-0.1-9.4-0.1-11.9
			c0-2.9-6.1-3.5-6.1-0.1c0,3.7,0,10.2,0,10.9c0,0.7-0.9,0.5-0.9,0s0-9.6,0-13c0-3-6.3-3.5-6.4-0.2c0,5-0.1,9.3-0.1,12.3
			c0,1.2-0.6,0.6-0.6,0.6c0-3.4,0-20.8,0-23.5c0-3.1-7.5-3.2-7.5,0c0,3.9,0,25,0,25.6c0,0.6-0.2,1.8-1.6,1c-1.4-0.8-4.9-5.8-5.9-6.8
			S51.4,47.3,50.4,50z"/>
		<g>
			<path class="st3" d="M120.3,60.1c-0.3-6.1-5.1-10.3-10.7-10s-9.9,4.9-9.6,11c0.3,6.3,5.1,10.3,10.7,10
				C116.3,70.9,120.6,66.6,120.3,60.1z M109.5,65c-2.1,0-3.9-1.5-3.9-4.2c0-2.9,1.7-4.2,3.9-4.2c2.1,0,3.9,1.2,3.9,4.2
				C113.4,63.8,111.6,65,109.5,65z"/>
			<circle class="st3" cx="125.5" cy="29.1" r="6.5"/>
			<circle class="st3" cx="155.7" cy="9.8" r="6.5"/>
			<path class="st3" d="M139.7,34.8c-3.6,0-6.5,2.9-6.5,6.5s2.9,6.5,6.5,6.5s6.5-2.9,6.5-6.5S143.3,34.8,139.7,34.8z M139.7,45.5
				c-2.3,0-4.2-1.9-4.2-4.2s1.9-4.2,4.2-4.2s4.2,1.9,4.2,4.2S142,45.5,139.7,45.5z"/>
			
				<rect x="116.9" y="31.2" transform="matrix(0.8883 0.4593 -0.4593 0.8883 33.0222 -49.4623)" class="st3" width="2.5" height="23.9"/>
			
				<rect x="146.6" y="13.5" transform="matrix(0.8883 0.4593 -0.4593 0.8883 28.3079 -65.0323)" class="st3" width="2.5" height="24.4"/>
			
				<rect x="131.2" y="30.3" transform="matrix(-0.6559 0.7549 -0.7549 -0.6559 245.8849 -41.7357)" class="st3" width="2.5" height="9.8"/>
		</g>
		<path class="st5" d="M128.2,71.2l-5.9-20.8h5.1l4.3,15.2c0,0-0.2-1.7,0,0l0,0c0.2,0,0,0,0,0c0.4-2.1,2.9-12.5,3.8-15.2l0,0h5.3
			l4.1,15l0,0l0,0l3.9-15l0,0h4.9l-5.8,20.8h-5.7l-3.8-16.9l0,0l0,0l0,0l-4.2,16.9H128.2z"/>
	</g>
</g>
<g id="Logo_Black_2_copy_2">
	<g id="Layer_3_copy_9">
	</g>
</g>
<g id="Logo_Test_purple">
	<g id="Layer_3_copy_6">
	</g>
</g>
<g id="Logo_Test_purple_copy">
	<g id="Layer_3_copy_7">
	</g>
</g>
<g id="Logo_Test_purple_copy_2">
	<g id="Layer_3_copy_8">
	</g>
</g>
<g id="Logo_Test_purple_copy_3">
	<g id="Layer_3_copy_10">
	</g>
</g>
</svg>
