<?xml version="1.0" encoding="utf-8"?>
<!-- Generator: Adobe Illustrator 24.1.2, SVG Export Plug-In . SVG Version: 6.00 Build 0)  -->
<svg version="1.1" xmlns="http://www.w3.org/2000/svg" xmlns:xlink="http://www.w3.org/1999/xlink" x="0px" y="0px"
	 viewBox="0 0 500 500" style="enable-background:new 0 0 500 500;" xml:space="preserve">
<style type="text/css">
	.st0{fill:#DED9CB;}
	.st1{fill:#FFF9EA;}
	.st2{fill:#FF4140;}
	.st3{fill:#FF4040;}
	.st4{fill:#656C8B;}
	.st5{fill:#8389A1;}
	.st6{fill:#F4B222;}
	.st7{fill:#253759;}
	.st8{fill:#F62F48;}
	.st9{fill:#17C5CC;}
	.st10{fill:#14B0BF;}
	.st11{fill:#17191A;}
	.st12{fill:#EDB485;}
	.st13{opacity:0.3;fill:#F3AD7A;}
	.st14{fill:#3F705C;}
	.st15{fill:#7CC4A6;}
	.st16{fill:#141B2F;}
	.st17{opacity:0.2;fill:#141B2F;}
	.st18{fill:#FFCD9C;}
	.st19{fill:#BF4223;}
	.st20{fill:#6B2514;}
	.st21{fill:#F3AD7A;}
	.st22{fill:#2A2626;}
	.st23{fill:#FFF7DC;}
	.st24{opacity:0.3;fill:#FFE9D4;}
	.st25{opacity:0.2;fill:#F48FB7;}
	.st26{fill:#5E3F37;}
	.st27{fill:#659103;}
	.st28{fill:#476602;}
	.st29{fill:#FD9F98;}
	.st30{fill:#FF8087;}
	.st31{fill:#F5FDFC;}
	.st32{fill:#1C2842;}
	.st33{fill:#FFC30B;}
	.st34{fill:#CF9B72;}
	.st35{fill:#E1E7E8;}
	.st36{fill:#3D414F;}
	.st37{fill:#FEC08A;}
	.st38{fill:#2F323D;}
	.st39{fill:#FEFEFE;}
	.st40{opacity:0.1;fill:#F48FB7;}
	.st41{fill:#713815;}
	.st42{fill:#D62626;}
	.st43{fill:#FBF9F7;}
	.st44{fill:#383C48;}
	.st45{fill:#FFCA00;}
	.st46{opacity:0.3;}
	.st47{fill:#52290F;}
	.st48{opacity:0.2;fill:#1C2842;}
	.st49{fill:#F59A22;}
	.st50{opacity:0.1;fill:#8C3627;}
	.st51{opacity:0.2;fill:#F4B222;}
	.st52{fill:#DF8510;}
	.st53{fill:#91321B;}
	.st54{fill:#D41E1E;}
	.st55{fill:#E6DAD1;}
	.st56{fill:#422121;}
	.st57{fill:#362825;}
	.st58{opacity:0.3;fill:#FFFFFF;}
	.st59{fill:#A9AFC2;}
	.st60{fill:#8E93A3;}
	.st61{fill:#AC1111;}
	.st62{opacity:0.3;fill:#BF4223;}
	.st63{fill:#005A4E;}
	.st64{opacity:0.4;fill:#C92340;}
	.st65{opacity:0.4;fill:#D62626;}
	.st66{fill:#AAAAAA;}
	.st67{fill:#FFFFFF;}
	.st68{fill:#62C3ED;}
	.st69{fill:#8DB90A;}
	.st70{fill:#1E2A36;}
	.st71{fill:#EDD6B6;}
	.st72{fill:#E1E1E1;}
	.st73{fill:#757D9C;}
	.st74{fill:#1D67A8;}
	.st75{opacity:0.3;fill:#FEC08A;}
	.st76{fill:#FFAE38;}
	.st77{fill:#DE9731;}
	.st78{opacity:0.2;fill:#253759;}
	.st79{fill:#292A36;}
	.st80{fill:#C6C6C6;}
	.st81{fill:#593D3D;}
	.st82{fill:#EDE6D4;}
	.st83{fill:#618C03;}
	.st84{fill:#222430;}
	.st85{opacity:0.2;}
	.st86{fill:#E6E6E6;}
	.st87{fill:#9EC631;}
	.st88{fill:#F79800;}
	.st89{fill:#FFBB00;}
	.st90{opacity:0.2;fill:#8DB90A;}
	.st91{opacity:0.4;}
	.st92{fill:#472611;}
	.st93{fill:#FEFFFF;}
	.st94{fill:#BDEAFF;}
	.st95{fill:#F9F8F5;}
	.st96{fill:#361D1B;}
	.st97{fill:#512F2E;}
	.st98{fill:#2C1816;}
	.st99{fill:#FFA600;}
	.st100{fill:#CEC1A5;}
	.st101{fill:#D87E2E;}
	.st102{fill:#F54131;}
	.st103{fill:#AD2E23;}
	.st104{fill:#A5AF4E;}
	.st105{fill:#8E9143;}
	.st106{opacity:0.2;fill:#465C05;}
	.st107{fill:#9C261F;}
	.st108{fill:#E3372D;}
	.st109{fill:#F7AC2F;}
	.st110{fill:#28324E;}
	.st111{fill:#475577;}
	.st112{fill:#EF6050;}
	.st113{fill:#EE8F33;}
	.st114{fill:#F6E9C4;}
	.st115{fill:#B7B7B7;}
	.st116{opacity:0.5;fill:#B7B7B7;}
	.st117{fill:#4993BA;}
	.st118{fill:#3E7E9B;}
	.st119{fill:#808080;}
	.st120{fill:#B3B3B3;}
	.st121{fill:#5C5C5C;}
	.st122{fill:#BC3122;}
	.st123{opacity:0.3;fill:#253759;}
	.st124{opacity:0.3;fill:#141B2F;}
	.st125{fill:#6E777D;}
	.st126{fill:#FFA631;}
	.st127{fill:#1A222B;}
	.st128{opacity:0.4;fill:#EDE6D4;}
	.st129{fill:#18181B;}
	.st130{fill:#402524;}
	.st131{fill:#462119;}
	.st132{fill:#3E3E53;}
	.st133{fill:#FDB646;}
	.st134{fill:#F29031;}
	.st135{fill:#242634;}
	.st136{fill:#4F7207;}
	.st137{fill:#5C240B;}
	.st138{opacity:0.6;}
	.st139{opacity:0.4;fill:#618C03;}
	.st140{opacity:0.2;fill:#5C240B;}
	.st141{opacity:0.2;fill:#FF4040;}
	.st142{fill:#1B6DB5;}
	.st143{fill:#1D7FD5;}
	.st144{fill:#4F9FE5;}
	.st145{fill:#2A9DD1;}
	.st146{fill:#2895C7;}
	.st147{fill:#2485B0;}
	.st148{fill:#45A8A5;}
	.st149{fill:#240E01;}
	.st150{fill:#451B01;}
	.st151{fill:#120700;}
	.st152{fill:#331400;}
	.st153{fill:#4FBEF0;}
	.st154{fill:#54CAFF;}
	.st155{fill:#2EABE3;}
	.st156{fill:#71CFF3;}
	.st157{fill:#FFF9ED;}
	.st158{fill:#E2F1F1;}
	.st159{fill:#BD6500;}
	.st160{fill:#1C1E29;}
	.st161{opacity:0.4;fill:#DED9CB;}
	.st162{fill:#E89700;}
	.st163{fill:#FFFBF2;}
	.st164{fill:#EFE7D8;}
	.st165{fill:#DCD4C4;}
	.st166{fill:#466606;}
	.st167{fill:#292B37;}
	.st168{fill:#E2F8F6;}
	.st169{opacity:0.4;fill:#292A36;}
	.st170{fill:#343645;}
	.st171{fill:#FFAA00;}
	.st172{fill:#EB8D00;}
	.st173{fill:#FFF4DE;}
	.st174{fill:#C93F24;}
	.st175{fill:#EA522D;}
	.st176{fill:#3B3346;}
	.st177{fill:#4D445A;}
	.st178{fill:#465C05;}
	.st179{fill:#DED2BE;}
	.st180{fill:#D6C8AF;}
	.st181{fill:#242934;}
	.st182{fill:#3E2624;}
	.st183{fill:#351F1D;}
	.st184{fill:#E69D32;}
	.st185{fill:#CF8312;}
	.st186{fill:#FC9D12;}
	.st187{fill:#ECEDF8;}
	.st188{fill:#B93131;}
	.st189{fill:#22232C;}
	.st190{opacity:0.2;fill:#892B2B;}
	.st191{opacity:0.2;fill:#DED9CB;}
	.st192{opacity:0.5;fill:#DED9CB;}
	.st193{opacity:0.1;fill:#FBF9F7;}
	.st194{fill:#C92121;}
	.st195{fill:#BB203C;}
	.st196{opacity:0.2;fill:#F3AD7A;}
	.st197{opacity:0.2;fill:#FFCD9C;}
	.st198{fill:#7B5339;}
	.st199{fill:#FEFFFC;}
	.st200{opacity:0.2;fill:#3D414F;}
	.st201{fill:#ECE8DE;}
	.st202{fill:#507302;}
	.st203{opacity:0.2;fill:#618C03;}
	.st204{fill:#7CAF18;}
	.st205{fill:#789E0E;}
	.st206{opacity:0.4;fill:#71CFF3;}
	.st207{fill:#2B170A;}
	.st208{opacity:0.4;fill:#FFAA00;}
	.st209{fill:#ED7E00;}
	.st210{fill:#A7660A;}
	.st211{fill:#F4B73D;}
	.st212{fill:#EA8D0B;}
	.st213{fill:#112A40;}
	.st214{fill:#2E3133;}
	.st215{fill:#222E38;}
	.st216{fill:#424549;}
	.st217{fill:#255076;}
	.st218{fill:#112D46;}
	.st219{fill:#10171D;}
	.st220{opacity:0.3;fill:#FFF9EA;}
	.st221{fill:#0F2436;}
	.st222{fill:#183854;}
	.st223{fill:#BAB6B5;}
	.st224{fill:#EDDDBE;}
	.st225{fill:#8A8A99;}
	.st226{fill:#3F3F3F;}
	.st227{fill:#00A3FF;}
	.st228{fill:#007CB2;}
	.st229{fill:#AA9335;}
	.st230{fill:#6B6B6B;}
	.st231{fill:#1190C9;}
	.st232{fill:#723117;}
	.st233{fill:#E59A91;}
	.st234{fill:#D67B58;}
	.st235{fill:#7F7226;}
	.st236{fill:#D1C022;}
	.st237{fill:#EAD1C1;}
	.st238{fill:#EABB9B;}
	.st239{fill:#D3B697;}
	.st240{fill:none;stroke:#706926;stroke-width:0.5;stroke-miterlimit:10;}
	.st241{fill:#BCA520;}
	.st242{fill:#59512F;}
	.st243{fill:#EFE1C5;}
	.st244{fill:#D88E0B;}
	.st245{fill:#507C1D;}
	.st246{fill:#54330B;}
</style>
<g id="Layer_2">
</g>
<g id="Layer_1">
	<g>
		<g>
			<g>
				<g>
					<g>
						<polygon class="st223" points="246.9,68.8 253,68.8 259.8,12.6 257.7,15.3 						"/>
						<polygon class="st224" points="252.3,69.4 312.7,69.1 304.9,23.8 259.4,15.3 						"/>
						<polygon class="st225" points="256.8,60.6 306.6,60.7 307,57.6 257,57.7 						"/>
						<polygon class="st225" points="256.4,66.2 306.2,66.3 306.6,63.1 256.6,63.2 						"/>
					</g>
					<g>
						<g>
							<g>
								<rect x="264.1" y="43.9" class="st226" width="9.9" height="10.1"/>
							</g>
							<g>
								<rect x="276.1" y="32.6" class="st6" width="9.9" height="21.4"/>
							</g>
							<g>
								<rect x="288" y="25.5" class="st227" width="9.9" height="28.4"/>
							</g>
						</g>
						<g>
							<g>
								<polygon class="st2" points="266.8,39.7 264.9,39.7 273.4,21.3 281.5,27.9 293.5,13.2 295.6,13.7 281.5,30.2 274.1,24 
																	"/>
							</g>
							<g>
								<g>
									<polygon class="st2" points="300.5,18 298.8,8.5 287.7,11.8 									"/>
								</g>
							</g>
						</g>
					</g>
				</g>
			</g>
		</g>
	</g>
	<g>
		<polygon class="st224" points="235.5,23.9 171.9,15.1 164.4,55 231.1,60.2 		"/>
		<g>
			<g>
				<path class="st228" d="M191.7,47.3c0,2.2-1.8,5.5-4,5.5h-6.2c-2.2,0-4-1.8-4-4V28.4c0-2.2,2.1-0.4,4,0.4h6.2c2.2,0,4,1.8,4,4
					V47.3z"/>
				<path class="st227" d="M193.1,47.3c0,2.2-1.8,4.6-4,4.6h-6.2c-2.2,0-4-2.4-4-4.6V28.8c0-2.2,1.8-0.1,4-0.1h6.2c2.2,0,4-3,4-0.8
					V47.3z"/>
				<path class="st229" d="M183.3,39.6c0,0,0.3-0.2-1-4.9c0-0.1-0.4-1.5-0.4-1.5c-0.1-0.2-0.1-3.9,0.8-4.7c0.5-0.3,1.1,0.6,1.6,0.4
					c0,0,0,0,0,0c0.9,0.4,1.3,1.2,0.2,2.7"/>
				<polygon class="st230" points="182.5,67 189.8,67 186.7,52.4 185.2,52.4 				"/>
				<rect x="186.5" y="52.4" class="st167" width="1.6" height="14.6"/>
				<rect x="177.5" y="67" class="st230" width="11.7" height="1"/>
				<rect x="184.1" y="67" class="st230" width="9.8" height="1"/>
				<path class="st231" d="M182.4,52.8h10.1c0.5,0,0.9-0.4,0.9-0.9l0,0c0-0.5-0.4-0.9-0.9-0.9l-13.4-3.3c0,0,0.1,2.9,1.6,4.2
					C181.2,52.4,181.9,52.8,182.4,52.8z"/>
				<g>
					<g>
						<g>
							<g>
								<path class="st79" d="M189.9,48.9v-1.5c0-2-1.6-3.6-3.6-3.6h-0.1c-2,0-3.6,1.6-3.6,3.6l0,1.1v0.4H189.9z"/>
								<g>
									<g>
										<g>
											<polygon class="st34" points="199.8,66.1 198.5,66.1 197.4,55.6 199.2,55.1 											"/>
											
												<rect x="198.4" y="65.7" transform="matrix(0.9997 -2.478052e-02 2.478052e-02 0.9997 -1.586 4.9561)" class="st168" width="1.5" height="1.6"/>
											<g>
												<g>
													<g>
														<path class="st232" d="M198.2,67.8c0,0.2,0.1,0.3,0.3,0.3c0.5,0,1.7,0,1.7,0l2.6,0v-0.4L198.2,67.8L198.2,67.8z"/>
													</g>
												</g>
											</g>
										</g>
									</g>
									<g>
										<g>
											<polygon class="st12" points="194.7,66.1 193.4,66.1 193.1,57 194.7,56.6 											"/>
											
												<rect x="193.3" y="65.7" transform="matrix(0.9997 -2.478446e-02 2.478446e-02 0.9997 -1.5878 4.8299)" class="st67" width="1.5" height="1.6"/>
											<g>
												<g>
													<g>
														<path class="st232" d="M193.1,67.8c0,0.2,0.1,0.3,0.3,0.3c0.5,0,1.7,0,1.7,0l2.6,0v-0.4L193.1,67.8L193.1,67.8z"/>
													</g>
												</g>
											</g>
										</g>
										<path class="st170" d="M199.5,55c-0.2-2.2-4.5-0.2-4.7-2.5l0,0c-0.1-0.9-0.5-1.6-0.8-2.1l0-0.1c-0.6-0.8-1.4-1.5-2.4-1.7
											c-0.6-0.1-1.7-0.1-2.5-0.1H189c-0.3,0-0.6,0-0.9,0v0c-0.2,0-0.3,0-0.5,0h-1.9v0h-3.1v0.8v0.5v0.3c0,1,0.8,1.8,1.8,1.8
											c0,0,3.1,0,5.4,0c0.3,0,0.6,0,1,0c0.3,0.1,0.4,0.3,0.5,0.3c0.2,0.3,0.3,0.5,0.3,0.6c0.2,2.3,1.1,1.1,1.3,3.3
											c0.1,1.1,0.3,1.1,0.8,1.1l2.3,0.1C198.6,56.5,199.6,56.2,199.5,55z"/>
										<path class="st170" d="M191.6,52.2c3,2.9,2.5,4.7,8.2,5.6c-0.1-1.5,0.9-5.2,0.9-6.2c0,0-0.1-0.4-0.3-0.7
											c-0.6-1.1-2.9-1.8-8.7-2.3c-1.1-0.1-2-0.1-2.5-0.1H189c-0.3,0-0.6,0-1,0v0c-0.2,0-0.3,0-0.5,0h-2v0h-2.6
											C183.3,52.4,189.6,49.9,191.6,52.2z"/>
										<path class="st79" d="M191.5,52.3c-2-2.3-8.2,0.2-8.4-3.8h-0.6v0.8v0.5v0.3c0,1,0.8,1.8,1.8,1.8c0,0,3.1,0,5.4,0
											c0.3,0,0.6,0,1,0c0.3,0.1,0.4,0.3,0.5,0.3c0.2,0.3,0.3,0.5,0.3,0.6c0.2,2.3,0.8,0.9,1,3.1c0.1,1.1-0.5,1.2,0.7,1.4
											l2.9,0.2c0-0.3,3.2-1.1,3.2-1.5C193.6,55.1,194.5,55.3,191.5,52.3z"/>
									</g>
								</g>
							</g>
						</g>
						<g>
							<g>
								<g>
									<g>
										<g>
											<path class="st233" d="M202.2,34.8c0,0.1-0.1,0.2-0.1,0.3c-0.5,1.2-1.5,2-3,2.2c-3,0.3-8.3-2.8-9.9-4.8
												c-0.4-0.4-0.3-1.1,0.2-1.5c0.5-0.4,1.1-0.3,1.5,0.2c1.4,1.7,6.1,4.2,8.1,4c0.9-0.1,1.2-0.5,1.3-0.8c0,0,0-0.1,0-0.1"/>
										</g>
									</g>
								</g>
							</g>
						</g>
						<g>
							<path class="st233" d="M191.7,35.6c0,0.2,0,0.3,0,0.5c-0.1,0.8-0.6,1.5-1.2,2c-0.4,0.3-0.9,0.5-1.4,0.5c0,0,0,0-0.1,0
								c-1.5,0-2.7-1.3-2.7-2.9c0-0.4,0.1-0.8,0.2-1.1c0.3-0.8,1-1.5,1.8-1.7c0.2-0.1,0.5-0.1,0.7-0.1c0.7,0,1.3,0.3,1.8,0.7
								C191.4,34,191.7,34.8,191.7,35.6z"/>
							<path class="st21" d="M183.5,42.1c-0.1,0.3-0.2,0.6-0.3,0.9c-1.2,2.7-0.6,5.4-0.6,5.6c1.5,0.7,6.7,0.3,8.2,0
								c-1.7-3.3-1.4-4.8-1.2-7.5c0.1-1.3,1.2-5.4,1.2-5.4c0-0.1,0-0.2,0-0.3v-4.1c0-0.2-0.1-0.3-0.2-0.4c0-0.1-0.1-0.1-0.2-0.1
								c-0.1,0-0.1-0.1-0.2-0.1l-3.3-0.6l-1.4,0.2l-2.3,0.4c-0.3,0-0.6,0.3-0.6,0.6c0,0,0,0,0,0.1c0,0.1,0,0.2,0.1,0.3
								c0.1,0.7,0.4,2.3,0.7,3.9c0,0,0,0,0,0c0.3,1.6,0.5,3.3,0.5,4c0,0.1,0,0.1,0,0.2C183.9,40.5,183.8,41.3,183.5,42.1z"/>
							<path class="st233" d="M190.8,31.5v4.1c0,0.1,0,0.2,0,0.3c0,0-0.1,0.4-0.2,0.9c0,0.2-0.1,0.4-0.1,0.6c-0.2,1.3-1,3.3-0.9,4
								c0,0.2-0.1,3-0.1,3.2c0.4,2.7,1.4,2.2,1.2,4.1c-0.3,0.1-0.9,0.1-1.5,0.2c-1.3,0.1-6.7,0.2-7.2,0c0-0.2,0-3.2,1.2-5.8
								c0.1-0.3,0.2-0.6,0.3-0.9c0.2-0.8,0.4-1.6,0.5-2.2c0,0,0-0.1,0-0.2c0-0.7-0.2-2.4-0.5-4c0,0,0,0,0,0
								c-0.3-1.6-0.6-3.2-0.7-3.9c0-0.1,0-0.2-0.1-0.3c0-0.1,0-0.1,0-0.1c0-0.3,0.3-0.6,0.6-0.6l2.1-0.4c0,0,1.8,6.7,3.7,5.5
								c0.8-0.5-0.3-5.4-0.3-5.4l1.5,0.3c0.1,0,0.1,0,0.2,0.1c0.1,0,0.1,0.1,0.2,0.1C190.8,31.2,190.8,31.3,190.8,31.5z"/>
							<path class="st234" d="M188.4,38.6c-1.4-0.2-2.5,0.1-3.4-0.9c-0.9-0.9-0.7-3.2-0.7-4.8c0-0.4,0.2-1,0-1.4
								c-0.3-0.7-0.9-0.7-0.9-0.7c-0.3,0-0.6,0.3-0.6,0.6c0,0,0,0,0,0.1c0,0.1,0,0.2,0.1,0.3c0.1,0.7,0.4,2.3,0.7,3.9c0,0,0,0,0,0
								c0.3,1.6,0.5,3.3,0.5,4c0,0.1,0,0.1,0,0.2c-0.1,0.6-0.2,1.4-0.5,2.2c-0.1,0.3-0.2,0.6-0.3,0.9c-1.2,2.7-1.2,5.6-1.2,5.8
								c0.5,0.2,5.9,0.2,7.2,0c0.6-0.1,1.2-0.1,1.5-0.2c-0.3-0.7-0.4-1.6-0.9-2.2C184.2,39.6,188.7,38.6,188.4,38.6z"/>
							<g>
								<g>
									<path class="st235" d="M189.8,30.8c0,0-1.2-0.4-3.8,0.1c-0.1,0-2.7-5.8-2-6.4c1.8-1.6,6.5-0.9,6.5-0.9
										S191.2,26.6,189.8,30.8z"/>
									<g>
										<path class="st21" d="M186.1,31.6l2.4-0.6c0.3-0.3-0.4-1.1-0.4-1.5l0.4-3.7c0-0.8-0.6-1.4-1.4-1.4c-0.8,0-1.4,0.6-1.4,1.4
											v4.7C185.7,30.9,185.8,31.3,186.1,31.6z"/>
										<path class="st13" d="M188.5,29v-3.2c0-0.8-0.6-1.4-1.4-1.4c-0.8,0-1.4,0.6-1.4,1.4v3.7L188.5,29z"/>
									</g>
									<g>
										<path class="st236" d="M191.7,23.2c0,0.2,0,0.4,0,0.6c0,0.2-0.1,0.3-0.1,0.5c-0.5,1.9-2.2,3.4-4.3,3.4
											c-0.6,0-1.1-0.1-1.6-0.3h0c-1.6-0.6-2.8-2.1-2.9-3.9c0-0.1,0-0.2,0-0.3c0-2,1.3-3.7,3.1-4.2c0.4-0.1,0.9-0.2,1.4-0.2
											c0.4,0,0.8,0,1.1,0.1c0.1,0,0.3,0.1,0.4,0.1c0.4,0.1,0.7,0.3,1,0.5C190.9,20.4,191.7,21.7,191.7,23.2z"/>
										<g>
											<g>
												<g>
													<path class="st237" d="M185.1,22.7v3.1c0,0.8,0.3,1.6,0.9,2.1c0.1,0.1,0.2,0.2,0.4,0.3c0.5,0.4,1.1,0.6,1.8,0.6
														c0.5,0,1-0.1,1.5-0.4c0.7-0.4,1.2-1.1,1.4-1.9c0.1-0.2,0.1-0.5,0.1-0.8v-3.1c0,0,0-0.1,0-0.1c0-0.8-0.4-1.5-0.9-2
														c-0.5-0.5-1.3-0.8-2.1-0.8C186.5,19.7,185.1,21,185.1,22.7z"/>
												</g>
											</g>
											<g>
												<g>
													<g>
														<path class="st22" d="M188,24.3c0,0.2-0.2,0.4-0.4,0.4c-0.2,0-0.4-0.2-0.4-0.4c0-0.2,0.2-0.4,0.4-0.4
															C187.8,23.9,188,24.1,188,24.3z"/>
														<path class="st1" d="M187.6,24.3c0,0.1-0.1,0.2-0.2,0.2c-0.1,0-0.2-0.1-0.2-0.2c0-0.1,0.1-0.2,0.2-0.2
															C187.6,24.1,187.6,24.2,187.6,24.3z"/>
													</g>
													<g>
														<path class="st22" d="M190.1,26.8c-0.1,0.4-0.5,1-1,1c-0.5,0-1.1-0.4-1.2-0.8c0,0,0,0,0.1,0c0.3,0,1.5,0,1.8,0
															C189.9,27,190.1,26.8,190.1,26.8z"/>
														<path class="st1" d="M189.9,26.9c0,0,0.2,0,0.2,0c-0.1,0.1-0.5,0.3-0.9,0.3c-0.4,0-1.2,0-1.3-0.1c0,0,0.1,0,0.1,0
															C188.3,27,189.6,26.8,189.9,26.9z"/>
													</g>
													<g>
														<g>
															<path class="st238" d="M189,26.4L189,26.4c-0.2,0-0.4-0.5-0.4-0.8c0-0.5,0-0.4,0-0.9c0-0.3-0.1-0.6,0.2-0.6l0.2,0.1
																c0.3,0.7,0.3,0.9,0.3,1.2c0,0.5,0.2,0.3,0.3,0.8C189.6,26.4,189.2,26.4,189,26.4z"/>
														</g>
													</g>
													<g>
														<path class="st22" d="M190.8,24.3c0,0.3-0.2,0.5-0.5,0.5c-0.3,0-0.5-0.2-0.5-0.5c0-0.3,0.2-0.5,0.5-0.5
															C190.5,23.9,190.8,24.1,190.8,24.3z"/>
														<path class="st1" d="M190.2,24.3c0,0.1-0.1,0.3-0.2,0.3c-0.1,0-0.2-0.2-0.2-0.3c0-0.1,0.1-0.2,0.2-0.2
															C190.1,24.1,190.2,24.2,190.2,24.3z"/>
													</g>
												</g>
												<path class="st236" d="M187.9,23.3c-0.2,0-0.5,0.1-0.7,0.2l0,0.1c0.2,0,0.5,0,0.7,0.1c0,0,0.2,0,0.2-0.1
													C188.1,23.4,188.1,23.3,187.9,23.3z"/>
												<path class="st236" d="M190.1,23.3c0.2,0,0.5,0.1,0.7,0.2l0,0.1c-0.2,0-0.5,0-0.7,0c0,0-0.2,0-0.2-0.1
													C189.8,23.4,189.9,23.3,190.1,23.3z"/>
												<path class="st22" d="M187.1,24.2c0,0,0.4-0.4,0.9,0C188,24.2,187.6,23.4,187.1,24.2z"/>
												<path class="st22" d="M189.9,24.1c0,0,0.8-0.5,1.2,0C191.1,24.1,190.4,23.3,189.9,24.1z"/>
											</g>
										</g>
										<path class="st236" d="M185.3,20.8c1-1.3,2.4-2,3.1-1.5c0.6,0.5,3.1,2.2,2.3,3.4c-0.1,0.2-1.3,0.5-1.5,0.6
											c-0.3,0.3-1.5-0.7-1.8-0.5c-0.8,0.7-2.2,1.7-2.7,1.3C184.1,23.6,184.3,22.1,185.3,20.8z"/>
										<g>
											<path class="st18" d="M185.3,25.9c-0.3,0.1-0.8-0.1-1-0.6c-0.2-0.5-0.2-1,0.1-1.2c0.3-0.1,0.8,0.1,1,0.6
												C185.7,25.3,185.6,25.8,185.3,25.9z"/>
											<path class="st21" d="M185.1,25.4c-0.1,0.1-0.3,0-0.4-0.2c-0.1-0.2-0.1-0.4,0-0.5c0.1-0.1,0.3,0,0.4,0.2
												C185.2,25.1,185.2,25.3,185.1,25.4z"/>
										</g>
									</g>
									<path class="st236" d="M188.3,19.4c0,0,0.9,0.7,0.4,2.5c-0.5,1.8-3,6.9,0.3,14.1c0,0-4.5-4.9-5.4-5.5
										c-1.5-1-2.4-3.5-1.8-7.2C182.3,19.6,186.4,17.8,188.3,19.4z"/>
									<g>
										<path class="st1" d="M187.9,17.8c-2-0.6-3.2,1.2-3.8,3.2l-0.5,1.7c-0.1,0.4-0.2,0.7-0.2,1.1h1.2c0-0.2,0-0.5,0.1-0.7
											l0.5-1.7c0.7-1.9,1.2-2.6,1.5-2.9c0.2-0.1,1-0.2,1.4,0.3c0.1,0,0.7,0.2,0.7,0.2C188.7,18.3,188.3,18,187.9,17.8z"/>
									</g>
									<g>
										<path class="st1" d="M184.9,25.4c0.7-1.2,0.3-2-0.8-2c-1.1,0-2,0.9-2,2c0,1.1,0.9,2,2,2C185.2,27.4,184.4,26.3,184.9,25.4
											z"/>
									</g>
									<g>
										<path class="st173" d="M184.4,25.4c0-1.1,0.4-2-0.7-2c-1.1,0-1.6,0.9-1.6,2c0,1.1,0.5,2,1.6,2
											C184.8,27.4,184.4,26.5,184.4,25.4z"/>
									</g>
									<path class="st62" d="M183.5,27.9c-2.1-2.4-1.4-6.6,1.1-8.5c-1.3,0.7-2.6,2-2.8,3.9c-0.3,2.7,0,5.8,1.5,6.9
										c0.8,0.6,5,5.4,5.5,5.6c-0.1-0.2-4.4-5.5-4.5-5.7C183.5,29.3,183.9,28.2,183.5,27.9z"/>
									<path class="st236" d="M191.7,23.4c0-0.1,0-0.1,0-0.2c0-0.2-1.1-3.1-1.9-3.7c-0.4-0.2-0.9-0.3-1.3-0.4c0,0,0,0,0,0
										c-0.6,0.6-0.8,1.5,0.4,2.7c0.7,0.8,2.3,1.1,2.1,3.8c0,0,0-0.1,0-0.1c-0.1,1.4,0.4,4,0,5.8
										C190.9,31.4,191.6,28.2,191.7,23.4z"/>
								</g>
							</g>
						</g>
					</g>
				</g>
				<g>
					<g>
						<g>
							<rect x="185.7" y="49.1" class="st223" width="2" height="19.8"/>
							<rect x="187.1" y="49.1" class="st239" width="2" height="19.8"/>
							<rect x="225" y="48.2" class="st223" width="2" height="20.8"/>
							<rect x="226.4" y="48.2" class="st239" width="2" height="20.8"/>
						</g>
						<g>
							<rect x="173.3" y="48.2" class="st239" width="2" height="20.8"/>
							<rect x="174.7" y="48.2" class="st223" width="2" height="20.8"/>
							<rect x="212.4" y="48.2" class="st223" width="2" height="20.8"/>
							<rect x="213.8" y="48.2" class="st239" width="2" height="20.8"/>
						</g>
						<rect x="173.3" y="48.2" class="st239" width="46" height="2.5"/>
						<rect x="187.1" y="48.2" class="st239" width="41.3" height="2.5"/>
					</g>
				</g>
				<path class="st1" d="M193.2,48.3v-0.2c0-0.6-1.5-1.1-2.1-1.1h-0.7c-0.6,0-1.1,0.5-1.1,1.1v0.2L193.2,48.3z"/>
				<path class="st12" d="M192,47.6c0,0.7-0.8,0.1-1.8,0.1c-1,0-1.8,0.6-1.8-0.1c0-0.7,0.8-1.3,1.8-1.3
					C191.2,46.3,192,46.9,192,47.6z"/>
				<g>
					<g>
						<path class="st233" d="M189.2,48.2c0,0-3-0.2-4-0.6c-1.3-0.5-5.6-2.7-5.8-7.4c0-0.8,0.1-2.3,0.6-3.9c0.4-1.4,1.1-3.4,2.4-5
							c0.4-0.4,1-0.5,1.4-0.1c0.4,0.4,0.8,2.3,0.5,2.7c-1.9,2.3-3,5.1-2.9,6.3c0.1,2.3,1.5,3.7,2.7,4.6c1.3,1,5.1,1.5,5.1,1.5
							L189.2,48.2z"/>
					</g>
				</g>
				<g class="st85">
					<path class="st83" d="M181.4,44.1c-1.2-1.9-1.8-4.1-1.3-6.3c0.4-1.6,1-3.1,1.6-4.6c0.3-0.8,0.8-1.5,1.2-2.2
						c-0.2,0.1-0.3,0.2-0.4,0.3c-1.3,1.6-2.1,3.6-2.4,5c-0.5,1.6-0.6,3.2-0.6,3.9c0.2,4.7,4.5,6.8,5.8,7.4c1,0.4,2.1,0.5,2.1,0.5
						l0.8-0.5c-0.2-0.1-1-0.8-1.3-0.9C184.7,46.2,182.6,45.9,181.4,44.1z"/>
				</g>
				<g>
					<g>
						<path class="st127" d="M193.6,42.4c0,0.6,0.5,1.1,1.1,1.1h19.5c0.6,0,1.1-0.5,1.1-1.1v-13c0-0.6-0.5-1.1-1.1-1.1h-19.5
							c-0.6,0-1.1,0.5-1.1,1.1V42.4z"/>
						<path class="st0" d="M193.7,28.4h11.1h8.5c0.6,0,1.1,0.5,1.1,1.1v13c0,0.6-0.5,1.1-1.1,1.1h-8.5h-11.1c-0.6,0-1.1-0.5-1.1-1.1
							v-13C192.6,28.9,193.1,28.4,193.7,28.4z"/>
						<path class="st1" d="M194.7,28.4h11.1h8.5c0.6,0,1.1,0.5,1.1,1.1v13c0,0.6-0.5,1.1-1.1,1.1h-8.5h-11.1c-0.6,0-1.1-0.5-1.1-1.1
							v-13C193.6,28.9,194,28.4,194.7,28.4z"/>
						<path class="st67" d="M214.9,28.6C214.9,28.6,214.9,28.6,214.9,28.6l-19.6,0c-0.6,0-1.1,0.5-1.1,1.1v13c0,0.3,0.2,0.7,0.4,0.9
							c-0.6,0-1.1-0.5-1.1-1.1v-13c0-0.6,0.5-1.1,1.1-1.1h19.5C214.5,28.4,214.7,28.5,214.9,28.6z"/>
						<ellipse class="st82" cx="204.4" cy="36.5" rx="5.5" ry="4.3"/>
					</g>
					<g>
						<path class="st0" d="M204,46.9l-4.1,0.8l0.3,0.5h5.7l0.2-12.4h-3.8v1.3h0.7c0.3,0,1.2-0.1,1.3,0.4l0.4,8
							C204.7,46.2,204.4,46.9,204,46.9z"/>
						<path class="st1" d="M207.6,48.2h-2.9c0.7,0,0.5-1.1,0.4-2.2l0.1-8.8c-0.1-0.8-1.2-1.4-1.7-1.4h2.9c0.5,0,1.5,0.6,1.7,1.4
							L208,46C208.1,47.1,208.3,48.2,207.6,48.2z"/>
					</g>
				</g>
			</g>
		</g>
		<g>
			<g>
				<path class="st240" d="M175.3,43.6c0,0,1.4-3.5,0.2-4.5"/>
				<path class="st83" d="M174.7,44.4c0.8-0.9,1.6-1.9,3.1-2.7c-0.2,0.9-1.1,2-2.4,2.8L174.7,44.4z"/>
				<path class="st83" d="M175.3,44.6c-0.8-0.7-1.7-1.4-1.8-3.2c1.2,0,1.4,1.8,2.2,2.5L175.3,44.6z"/>
				<path class="st69" d="M174.3,46.5c-0.3-0.9-0.3-2,0-2.9c0.5,0.9,0.7,1.8,0.8,2.8L174.3,46.5z"/>
				<g>
					<path class="st179" d="M173.5,43.1c0.1,2.1,0.4,3.9,0.8,5.1h2.4c0.4-1.2,0.7-3,0.8-5.1H173.5z"/>
					<path class="st180" d="M174.8,46.9c-0.7-0.9-1.1-2.3-1-3.7h-0.4c0.1,2.1,0.4,3.9,0.8,5.1h2.4c0.1-0.2,0.2-0.5,0.2-0.8
						C176.2,47.7,175.4,47.7,174.8,46.9z"/>
				</g>
				<path class="st241" d="M175.1,38.7c-0.2-0.2-0.4-0.4-0.2-1.2c0.4-0.1,0.2,0.6,0.4,0.8L175.1,38.7z"/>
				<path class="st241" d="M175.5,38c0.2-0.3,0.1-0.5,0.6-0.7c0.1,0.4-0.1,0.6-0.2,0.9L175.5,38z"/>
				<path class="st241" d="M175.8,38.1c0.4-0.1,0.4-0.3,0.9-0.1c-0.2,0.3-0.5,0.4-0.8,0.5L175.8,38.1z"/>
				<path class="st241" d="M176,38.7c0,0.4,0.1,0.5-0.2,0.9c-0.3-0.3-0.2-0.5-0.3-0.9L176,38.7z"/>
				<path class="st241" d="M175.3,38.9c-0.3,0.2-0.4,0.3-0.9,0.2c0.2-0.4,0.4-0.4,0.7-0.6L175.3,38.9z"/>
				<path class="st241" d="M175,38.6c-0.4,0-0.5,0.1-0.8-0.4c0.3-0.2,0.6-0.1,0.9-0.1L175,38.6z"/>
				<path class="st241" d="M175.2,38.2c-0.1-0.4-0.2-0.4,0-0.9c0.3,0.3,0.3,0.5,0.4,0.8L175.2,38.2z"/>
				<path class="st241" d="M176,38.5c0.4,0,0.5-0.1,0.9,0.3c-0.3,0.2-0.6,0.2-0.9,0.1L176,38.5z"/>
				<path class="st241" d="M175.6,39c-0.1,0.4-0.1,0.5-0.5,0.7c-0.1-0.4,0-0.6,0.1-0.9L175.6,39z"/>
				<ellipse class="st242" cx="175.6" cy="38.5" rx="0.7" ry="0.6"/>
			</g>
		</g>
		<g>
			<g>
				<polygon class="st227" points="218.4,21.9 225.3,21.8 224.5,12.7 214.2,13.4 213.7,22 216.3,22 216,27.7 				"/>
			</g>
			<g>
				<g>
					<polygon class="st67" points="215.3,20.7 215.1,20.3 218.1,16.2 219.9,18.4 223.1,14 223.4,14.4 219.9,19.1 218.1,16.9 					
						"/>
				</g>
				<g>
					<g>
						<polygon class="st67" points="223.6,15.1 223.9,13.2 222.7,13.7 						"/>
					</g>
				</g>
			</g>
		</g>
		<g>
			<g>
				<polygon class="st227" points="201.9,21.1 192.7,20.9 193.8,10.2 207.6,11 208.2,21.2 204.7,21.2 206,27.6 				"/>
			</g>
		</g>
		<g>
			<g>
				<path class="st243" d="M199.7,14.5c-0.1-1.1-0.9-1.9-2-1.9c0,0,0,0,0,0h0c0,0,0,0,0,0c-1.1,0-1.9,0.8-2,1.9c0,0.5-0.1,1,0.8,2
					c0.2,0.2,0.2,0.6,0.3,0.9c0,0.1,0.7,0.2,0.9,0.2h0c0.3,0,0.9-0.1,0.9-0.2c0-0.3,0.1-0.7,0.3-0.9
					C199.7,15.5,199.7,15.1,199.7,14.5z"/>
				<path class="st16" d="M197.6,17h-1.1v1.4h0c0,0,0,0.1,0.1,0.1l0.7,0.4c0.1,0,0.2,0.1,0.2,0.1c0.1,0,0.2,0,0.2-0.1l0.7-0.4
					c0.1,0,0.1-0.1,0.1-0.1l0,0V17H197.6z"/>
				<g>
					<rect x="196.5" y="17" class="st44" width="2.3" height="0.3"/>
					<rect x="196.5" y="17.6" class="st44" width="2.3" height="0.3"/>
					<rect x="196.5" y="18.2" class="st44" width="2.3" height="0.3"/>
				</g>
				<path class="st243" d="M195.3,15.8c0-0.1-0.7,0-0.9,0.3c-0.1,0.1-0.1,0.2-0.1,0.2C194.5,16.3,195.4,15.9,195.3,15.8z"/>
				<path class="st243" d="M195.1,13.3c0.1-0.1-0.1-0.4-0.4-0.4c-0.1,0-0.3,0-0.3,0.1C194.3,13.2,195,13.4,195.1,13.3z"/>
				<path class="st243" d="M200.5,12.8c0-0.1-0.4-0.2-0.7,0.1c-0.1,0.1-0.2,0.2-0.1,0.3C199.8,13.3,200.5,13,200.5,12.8z"/>
				<path class="st243" d="M201.3,16.3c0-0.1-0.5-0.6-0.9-0.6c-0.1,0-0.3,0-0.3,0.1C200.2,16,201.2,16.5,201.3,16.3z"/>
				<path class="st243" d="M197.4,12.1c0.1,0,0.3-0.4,0.2-0.7c0-0.1-0.1-0.2-0.2-0.2C197.2,11.3,197.3,12.1,197.4,12.1z"/>
			</g>
		</g>
		<circle class="st243" cx="204.4" cy="16.9" r="2.3"/>
		<path class="st244" d="M204.4,16.9l0.3-2.3c1.6,0.1,1.9,1.7,1.9,1.7L204.4,16.9z"/>
		<path class="st245" d="M204.4,16.7l2.2-0.3c0,0.2,0.3,1.2-0.4,2c-0.7,0.9-2.1,1.1-3.4,0.3C203.4,18,203.9,17.4,204.4,16.7z"/>
		<path class="st246" d="M205.9,65.4c0,0,0.5-1.3-0.6-1.3c-1.4,0-2,0.5-2.1,0.4s-0.2-1.4-1.9-0.7c-0.2,0.1-0.1,1.6-0.1,1.6
			C201.5,65.4,205.9,65.4,205.9,65.4z"/>
		<path class="st246" d="M200.7,65.4c0,0,0.5-1.3-0.6-1.3c-1.4,0-2,0.5-2.1,0.4s-0.2-1.4-1.9-0.7c-0.2,0.1-0.1,1.6-0.1,1.6
			C196.3,65.4,200.7,65.4,200.7,65.4z"/>
	</g>
	<g>
		<g>
			<g>
				<g>
					<polygon class="st224" points="114.9,58 151.4,57.5 146.8,11.3 92.3,13.7 90.1,58.5 103.7,58.3 95.8,71.1 					"/>
				</g>
				<g>
					<g>
						<path class="st6" d="M132.2,27.9c-0.6-6.7-5.6-11.3-12.3-11.3c0,0,0,0,0,0h0c0,0,0,0,0,0c-6.7,0-11.7,4.7-12.3,11.3
							c-0.3,3.3-0.3,6.2,5,12.5c1.1,1.3,1.5,4,1.6,5.5c0.1,0.8,4.2,1.4,5.7,1.5h0c1.5-0.1,5.6-0.7,5.7-1.5c0.1-1.6,0.5-4.2,1.6-5.5
							C132.5,34.1,132.5,31.2,132.2,27.9z"/>
						<path class="st16" d="M119.9,43.2h-6.5v8.4h0c0,0.1,0.2,0.3,0.6,0.5l4.4,2.5c0.4,0.2,1,0.3,1.5,0.3c0.5,0,1.1-0.1,1.5-0.3
							l4.4-2.5c0.4-0.2,0.5-0.4,0.6-0.5l0,0v-8.4H119.9z"/>
						<g>
							<rect x="112.8" y="43.2" class="st44" width="14.3" height="1.7"/>
							<rect x="112.8" y="46.7" class="st44" width="14.3" height="1.7"/>
							<rect x="112.8" y="50.1" class="st44" width="14.3" height="1.7"/>
						</g>
						<path class="st6" d="M105.8,35.8c-0.3-0.3-4,0.1-5.5,1.6c-0.4,0.4-0.9,1.1-0.5,1.3C100.8,39,106.2,36.3,105.8,35.8z"/>
						<path class="st6" d="M139.2,16c0.1-1-1.3-1.2-3.3,1.3c-0.1,0.2-1.5,1.4-1.7,1.7c-0.4,0.7,0.3,0.6,0.4,1
							c0.1,0.6,2.7-1.4,3.5-2.1C139.7,16.5,139,16.9,139.2,16z"/>
						<path class="st6" d="M100.6,15.8c-1,0.1-1,1.5,1.9,2.9c0.2,0.1,1.7,1.2,1.9,1.3c0.8,0.3,0.5-0.4,0.9-0.6
							c0.5-0.2-1.9-2.4-2.7-3C100.9,15.1,101.5,15.7,100.6,15.8z"/>
						<path class="st6" d="M142.1,39c0.2-0.5-2.9-3.6-5.5-3.8c-0.7,0-1.8,0.1-1.6,0.6C135.3,36.9,141.9,39.7,142.1,39z"/>
						<path class="st6" d="M118.6,13c0.6,0.1,2-2.4,1-4.2c-0.3-0.5-0.9-1.3-1.3-1.1C117.4,7.9,117.8,12.9,118.6,13z"/>
					</g>
				</g>
			</g>
		</g>
		<polygon class="st223" points="95,71.8 116.6,57.8 90.3,55.7 94.1,14.6 91.3,14.6 88.9,58.5 110.8,58.6 		"/>
	</g>
	<g>
		<g>
			<g>
				<polygon class="st223" points="20.4,70.5 16.7,69.8 14,10.8 16.7,10.5 				"/>
				<polygon class="st224" points="61.9,69.8 20.4,70.5 16.7,10.5 64.6,9.8 				"/>
				<g>
					<path class="st227" d="M25.3,14.5c1.8,0,2.7,1,2.7,2c0,1.2-1.1,2.5-3.2,2.5c-0.1,0-1-0.1-1.5-0.1c0.1-0.8,0.2-1.6,0.2-2.4
						c0-0.7,0-1.2-0.1-1.8C24,14.6,24.7,14.5,25.3,14.5z M25.5,15.7c-0.2,0-0.5-0.4-0.6-0.4c0,0.5,0,0.9,0,1.4c0,0.5,0,1-0.1,1.5
						c0.1,0,0.1,0.1,0.2,0.1c0.6,0,1.1-0.7,1.1-1.5C26.2,16,26.1,15.7,25.5,15.7z"/>
					<path class="st227" d="M30.8,14.6c-0.1,0.7-0.1,1.4-0.1,2.1c0,0.8,0,1.6,0.1,2.4L29.3,19c-0.1-0.9-0.1-1.6-0.1-2.4
						c0-0.7,0-1.3,0.1-2.1L30.8,14.6z"/>
					<path class="st227" d="M32.1,19c0-0.5,0-1,0-1.5c0-1,0-1.9,0.1-2.8c0.6-0.1,1.3-0.2,1.9-0.2c1.2,0,2.5,0.6,2.5,1.5
						c0,0.8-1.3,1.4-3,1.7c0,0.5,0,0.9,0,1.4L32.1,19z M33.6,17c0.9-0.2,1.5-0.6,1.5-1c0-0.5-0.5-0.7-1-0.7c-0.2,0-0.3,0-0.5,0
						C33.6,15.8,33.6,16.4,33.6,17z"/>
					<path class="st227" d="M37.4,18.9c-0.1-0.8-0.1-1.6-0.1-2.4c0-0.7,0-1.3,0.1-1.9l1.5,0.1c-0.1,0.7-0.2,1.4-0.2,2.1
						c0,0.5,0,0.9,0.1,1.4c0.6-0.1,1.3-0.1,1.9-0.1l0.2,0.7c-0.7,0-1.4,0.1-2.3,0.2L37.4,18.9z"/>
					<path class="st227" d="M43.8,14.5c1.3,0,2.5,0.6,2.5,2.2c0,1.5-1.3,2.5-2.6,2.5c-1.3,0-2.5-0.6-2.5-2.2
						C41.1,15.5,42.4,14.5,43.8,14.5z M43.6,18.4c0.6,0,1.1-0.7,1.1-1.7c0-1-0.5-1.4-1-1.4c-0.6,0-1.2,0.7-1.2,1.7
						C42.6,18,43.1,18.4,43.6,18.4z"/>
					<path class="st227" d="M51.9,15.7c-0.4,0.9-0.7,1.8-1.3,2.9l-1-0.1c-0.5-1.1-0.7-1.9-1.1-3l-0.1,0c0.1,1.1,0.1,2.2,0.2,3.5
						L47.1,19c0-0.8-0.1-1.5-0.1-2.2c0-0.7,0-1.3,0.2-2l2.1,0.1c0.3,0.7,0.6,1.4,0.8,2.2c0.5-0.8,0.8-1.6,1.1-2.5l2.1,0.1
						c0,0.7,0.1,1.4,0.1,2.2c0,0.7,0,1.5-0.1,2.2L51.7,19C51.9,18,51.9,16.8,51.9,15.7L51.9,15.7z"/>
					<path class="st227" d="M57.2,18l-1.6,0l-0.4,1.2l-1.5-0.1l2-4.5l2,0.1l1.4,4.3l-1.6-0.1L57.2,18z M55.8,17.4l1.2,0l-0.5-1.9
						L55.8,17.4z"/>
				</g>
				<rect x="24.5" y="29.3" class="st225" width="32.1" height="3.6"/>
				<rect x="25.3" y="36" class="st225" width="14.1" height="3.6"/>
				<polygon class="st225" points="48.3,25.3 34.1,25.3 33.6,23.2 47.7,23.2 				"/>
				<rect x="25.8" y="42.3" class="st225" width="29.6" height="3.6"/>
				<rect x="25.8" y="48.5" class="st225" width="29.6" height="3.6"/>
				<rect x="25.8" y="54.8" class="st225" width="21.8" height="3.6"/>
				<g>
					<g>
						<path class="st227" d="M19.6,70.4c0,0,1.6,1.1,3,1.5c0,0,2.3,1.4,1.9,2.2c0,0,2.1-4.5,3-5.7c0,0-0.4-0.4-1.2-0.6
							c-0.8-0.2-1.2-0.5-1.2-0.6C24.5,67.9,20.8,69.9,19.6,70.4z"/>
					</g>
					<g>
						<path class="st227" d="M36.4,70.4c0,0-1.2,0.5-2.7,0.8c0,0-2.1,2.4-1.7,3.3c0,0-2.3-6.2-3.2-7.4c0,0,0.4-0.4,1.2-0.6
							c0.8-0.2,1.2-0.5,1.2-0.6C31.9,66.6,35.2,69.9,36.4,70.4z"/>
					</g>
					<path class="st227" d="M34.1,64.7c0-2.7-3.1-5.3-5.8-5.3c-2.7,0-5,3-5,5.7c0,2.7,2.2,5,5,5C31,70,34.1,67.4,34.1,64.7z"/>
					<path class="st133" d="M32.1,65.1c0-2.1-1.7-3.8-3.8-3.8s-3.8,1.7-3.8,3.8c0,2.1,1.7,3.8,3.8,3.8S32.1,67.2,32.1,65.1z"/>
				</g>
				<path class="st225" d="M56.2,62.8c-0.6,0.5-4.2,2.8-4.3,1.7c0-0.2-0.3-0.3-0.6-0.2c-1,0.3-2.1,0.5-3.2,0.6
					c-1.7-0.7-2.8-0.5-1.8-1.3c0-1,0.1-0.4-0.2-1.3c0-0.2-1.3,0.5-1.5,0.6c-2.4,1-1.3,1-3.4,2.1c-0.3,0.2-1.4,0.9-1.8,0.2
					c-0.1-0.2,0.8-1,1-1.2c0.5-0.7,0.9-0.6,0.4-1.1c-0.6-0.7-0.3,0.5-1.4-0.3c-0.9-0.7-1.1,0.4-2,1c-0.2,0.1,2-0.5,2.1-0.6
					c0.7,0.6,0.7,1.1,0,1.6c-0.3,0.3-0.5,0.6-0.6,0.9c-0.2,0.6-0.2,0.1-0.1,0.7c0,0.1,0.1,0.1,0.2,0.1c1.4,0.2,2.5-1,3.3-1.5
					c0.9-0.7,0,0.8,1,0.2c2.9-1.8,2.6-2,2.3-1.3c-0.4,0.8-0.3,1.3,0.9,1.7c1.4,0.5,3.5-0.4,4.4-0.1c0.3,0.1,0.4,0.6,1.1,0.7
					c1.5,0.3,4.4-1,4.8-1.9c1.2-2.3,1.4-3-0.2-2.7c-0.4,0.1-0.7,0.9-0.3,0.9"/>
			</g>
		</g>
	</g>
</g>
</svg>
